<svg xmlns="http://www.w3.org/2000/svg" version="1.1" xmlns:xlink="http://www.w3.org/1999/xlink" xmlns:svgjs="http://svgjs.dev/svgjs" viewBox="0 0 6.341589932411171 5.654384408450406"><g transform="matrix(1,0,0,1,3.1680544655725718,4.934105107948315)"><rect width="6.341589932411171" height="6.341589932411171" x="-3.1680544655725718" y="-5.2777078699286974" fill="#00000000"></rect><g><path d=" M -2.4640283281911 -0.777095144774218 L -2.478054309159144 -0.8183289024720567 L -1.9492920045633304 -0.9981914819446206 L -2.0601247561343445 -1.324019018262836 L -2.022933523701 -1.3366699030575422 L -1.8980747911619418 -0.9696086090414883 L -2.4640283281911 -0.777095144774218 M -2.1040947416134475 -1.8676275696108635 L -2.064888870719172 -1.8701039264957648 L -2.038887123427708 -1.4584422821058718 L -2.63549820225364 -1.4207585903791125 L -2.660692441865245 -1.819635711651307 L -2.6214865709709696 -1.8221120685362084 L -2.599037857470886 -1.4667023258641887 L -2.3638026321052323 -1.4815604671735967 L -2.3838826564110627 -1.7994689420337004 L -2.345529087057967 -1.801891465073278 L -2.3254490627521367 -1.483982990213174 L -2.0808385204335047 -1.4994333038211454 L -2.1040947416134475 -1.8676275696108635 M -2.0540641397405506 -2.073278707293207 Q -2.08839488118839 -2.019833960482677 -2.1303349914526586 -1.9945984654207412 L -2.1580648632902055 -2.020482720787145 Q -2.118982760280413 -2.0445723962588485 -2.0875505736060798 -2.092516949597782 Q -2.0561183869317463 -2.1404615029367156 -2.044024514167163 -2.1981330879466148 Q -2.026497162334433 -2.281715095207339 -2.0493193756588157 -2.3310023126067456 Q -2.0721415889831984 -2.380289530006152 -2.12312661341224 -2.390981214624117 Q -2.16241015682478 -2.3992190699855 -2.1905455038526203 -2.3815595865382693 Q -2.21868085088046 -2.363900103091038 -2.2382290927026602 -2.333096402961658 Q -2.257777334524861 -2.3022927028322777 -2.283069054932833 -2.2482613141882224 Q -2.3124456972235725 -2.1872333654456835 -2.335640677132722 -2.1515226553993383 Q -2.358835657041872 -2.115811945352993 -2.3958752991102807 -2.0952205499305316 Q -2.4329149411786894 -2.07462915450807 -2.4855716057529453 -2.08567138616269 Q -2.5281984294559146 -2.094610335597382 -2.558988397546885 -2.1246266020866877 Q -2.589778365637856 -2.1546428685759933 -2.6009461871858717 -2.2054127205638774 Q -2.6121140087338874 -2.2561825725517615 -2.5975663067127215 -2.3255556385781624 Q -2.5874004426497383 -2.3740332027893825 -2.5633761843890865 -2.4178594770438235 Q -2.539351926128435 -2.461685751298265 -2.507926929771406 -2.4908714422436704 L -2.4769885036427275 -2.4678046466127133 Q -2.5085887735180843 -2.437783135594701 -2.529977387282721 -2.398203324702945 Q -2.5513660010473584 -2.358623513811189 -2.559954403445396 -2.317668330253434 Q -2.576955934723144 -2.236593783210532 -2.5531226278078263 -2.1879671123654054 Q -2.5292893208925094 -2.139340441520279 -2.47746847639086 -2.1284734833839862 Q -2.43818493297832 -2.1202356280226033 -2.4100495859504805 -2.137895111469834 Q -2.3819142389226404 -2.1555545949170654 -2.36236599710044 -2.1863582950464453 Q -2.3428177552782397 -2.2171619951758257 -2.316514941279333 -2.271853930374161 Q -2.2871382989885936 -2.3328818791167 -2.2640309558386074 -2.3681746791267413 Q -2.240923612688621 -2.403467479136783 -2.20471979069282 -2.4242341480775718 Q -2.1685159686970183 -2.445000817018361 -2.1166951241953695 -2.4341338588820682 Q -2.0740683004924003 -2.425194909447376 -2.043783879196897 -2.3948483696809304 Q -2.0134994579013936 -2.364501829914485 -2.0025945466308688 -2.3124782478176895 Q -1.991689635360344 -2.2604546657208946 -2.0062373373815094 -2.1910815996944937 Q -2.0197333982927117 -2.1267234541037365 -2.0540641397405506 -2.073278707293207 M -2.043369013835411 -3.386575698224108 Q -1.9632665695216214 -3.4097034205494094 -1.8847617568490915 -3.3565724801921095 Q -1.806964194741179 -3.3039201969551453 -1.7986603184777952 -3.220960334587839 Q -1.7903564422144111 -3.138000472220533 -1.8535391820987681 -3.0446433976910376 L -1.9492706061659757 -2.90319328476756 L -1.787310226868594 -2.793580804210608 L -1.811721740005732 -2.757511025415121 L -2.3067971352379026 -3.092571009650347 L -2.1866541980335574 -3.2700909013693114 Q -2.1234714581492002 -3.363447975898806 -2.043369013835411 -3.386575698224108 M -1.8388776181599575 -3.2110556706725344 Q -1.8452921257263832 -3.276237652881426 -1.9096519271065655 -3.3197954508320056 Q -1.9740117284867476 -3.363353248782585 -2.0372614015351345 -3.345318992926793 Q -2.100511074583521 -3.327284737071001 -2.1541206720611576 -3.2480726738338532 L -2.249852096128365 -3.106622560910376 L -1.9818041321383755 -2.925211512303018 L -1.886072708071168 -3.0666616252264953 Q -1.8324631105935318 -3.1458736884636425 -1.8388776181599575 -3.2110556706725344 M -1.119285227253541 -3.504769282475244 L -1.3555376187260961 -3.5715459875713966 Q -1.3775268436079862 -3.548456152294945 -1.3981872205142831 -3.5319025574560663 L -1.5314799747484569 -3.4251051713987843 L -1.4091969677128688 -3.272484967800655 L -1.4431866200425831 -3.2452516343560482 L -1.8169774712430706 -3.7117762741756564 L -1.6496950646791826 -3.8458069936775456 Q -1.561721846884628 -3.9162932684753518 -1.478362880903912 -3.914688302548653 Q -1.3950039149231963 -3.9130833366219546 -1.3357313656614047 -3.8391058580219886 Q -1.2914104504476325 -3.7837893650148064 -1.2895648991612123 -3.72343971740648 Q -1.287719347874792 -3.663090069798153 -1.328088286400703 -3.605576435568597 L -1.0806303285256305 -3.535740524431856 L -1.119285227253541 -3.504769282475244 M -1.4222166323771717 -3.5618934271587555 Q -1.3475726900060343 -3.6216999633508333 -1.3346836805561304 -3.6861951489106897 Q -1.3217946711062265 -3.750690334470546 -1.3703874817622899 -3.811338537647095 Q -1.4189802924183532 -3.871986740823644 -1.4847340079666118 -3.873471468609704 Q -1.5504877235148704 -3.8749561963957637 -1.6251316658860078 -3.8151496602036854 L -1.7584244201201815 -3.7083522741464034 L -1.5555093866113454 -3.4550960411014735 L -1.4222166323771717 -3.5618934271587555 M -0.8610087671231985 -3.6794014677512767 Q -0.9412183886029278 -3.6923489797546902 -1.0030758851836017 -3.7433804564898576 Q -1.0649333817642754 -3.7944119332250255 -1.0942674947599842 -3.8746158596548144 Q -1.1236016077556927 -3.9548197860846033 -1.1092653742280671 -4.033718670165694 Q -1.0949291407004413 -4.112617554246785 -1.0420002443067211 -4.174259693823075 Q -0.9890713479130009 -4.235901833399365 -0.9064613036903183 -4.266115969784945 Q -0.8238512594676357 -4.296330106170524 -0.7437883085528849 -4.28378361379926 Q -0.663725357638134 -4.271237121427995 -0.6018678610574604 -4.220205644692828 Q -0.5400103644767865 -4.16917416795766 -0.5103829103511207 -4.0881682022635735 Q -0.4807554562254549 -4.007162236569487 -0.4950916897530807 -3.928263352488396 Q -0.5094279232807063 -3.8493644684073054 -0.562503490239405 -3.7881233484631642 Q -0.6155790571981039 -3.726882228519023 -0.6981891014207865 -3.696668092133443 Q -0.7807991456434691 -3.6664539557478633 -0.8610087671231985 -3.6794014677512767 M -0.5961855367036887 -3.8130867477905364 Q -0.550974394136822 -3.865995538589405 -0.5387713339625831 -3.934566293050647 Q -0.5265682737883444 -4.003137047511888 -0.552088952094611 -4.072914463505805 Q -0.5776096304008775 -4.142691879499721 -0.6311737898990656 -4.187208661304481 Q -0.6847379493972537 -4.231725443109243 -0.7534163823606873 -4.2429797934542055 Q -0.822094815324121 -4.2542341437991675 -0.8926742705823352 -4.228420124362944 Q -0.9632537258405495 -4.20260610492672 -1.0088658880395651 -4.149550643562873 Q -1.0544780502385807 -4.096495182199026 -1.0666811104128195 -4.0279244277377835 Q -1.0788841705870582 -3.959353673276542 -1.0533634922807917 -3.8895762572826253 Q -1.0278428139745253 -3.8197988412887094 -0.9742786544763371 -3.7752820594839487 Q -0.920714494978149 -3.730765277679188 -0.8516350423825665 -3.719657597899204 Q -0.7825555897869838 -3.7085499181192203 -0.7119761345287696 -3.734363937555444 Q -0.6413966792705554 -3.760177956991668 -0.5961855367036887 -3.8130867477905364 M -0.2941693170237208 -3.82580848239557 Q -0.3379873461750669 -3.8452802314513628 -0.3664803342539895 -3.883432466960365 L -0.34220572141414446 -3.914330770206266 Q -0.3148148105977011 -3.879522753246869 -0.27976418595284097 -3.862831880711105 Q -0.24471356130798083 -3.846141008175341 -0.20468351903372323 -3.8490829054409077 Q -0.14506430713589274 -3.8534644545598367 -0.11821559183362812 -3.890117904937911 Q -0.0913668765313635 -3.926771355315985 -0.0966247354740784 -3.9983144095933816 L -0.12466664983522474 -4.379877365739497 L -0.3444060308300857 -4.363728227558301 L -0.34728533453681054 -4.402906566805447 L -0.08410909915924453 -4.422247976487577 L -0.053187881091373346 -4.001506681094316 Q -0.04661555741297968 -3.91207786324757 -0.08417984409573143 -3.8639331119862326 Q -0.12174413077848315 -3.8157883607248952 -0.20180421532699838 -3.809904566193762 Q -0.2503512878723746 -3.806336733339777 -0.2941693170237208 -3.82580848239557 M 0.5857446840316749 -3.792385873556989 L 0.579024811365989 -3.753680887219865 L 0.17262245482618532 -3.824239550209566 L 0.27488138669531775 -4.413228472731021 L 0.6686625520382331 -4.344861072567086 L 0.6619426793725472 -4.306156086229962 L 0.3110735640990522 -4.367073192786288 L 0.2707543281049371 -4.1348432747635435 L 0.5846012825342265 -4.080353872496135 L 0.5780274940569252 -4.042490298905469 L 0.26418053962763577 -4.096979701172878 L 0.22225437756129146 -3.855494242939082 L 0.5857446840316749 -3.792385873556989 M 1.0731357161612922 -4.151507821681811 L 0.8774673052177957 -4.241108916668686 L 0.8938230606519078 -4.276826166285356 L 1.3247594418965132 -4.079490421373786 L 1.3084036864624011 -4.043773171757117 L 1.1127352755189046 -4.133374266743991 L 0.88019910043392 -3.6255681526287264 L 0.8405995410763076 -3.6437017075665463 L 1.0731357161612922 -4.151507821681811 M 1.1976976985060228 -3.465308504463742 Q 1.1654735488039403 -3.5200492109441828 1.1618593717922743 -3.5688625368350535 L 1.1974662856582399 -3.5819426038433573 Q 1.2013463828050714 -3.53619691458053 1.229968115586121 -3.4865233907815263 Q 1.258589848367171 -3.4368498669825227 1.304613217855797 -3.400051457547964 Q 1.3713137533465594 -3.346720429381937 1.4255968171499382 -3.344867808503753 Q 1.4798798809533174 -3.3430151876255687 1.5124118081345936 -3.3837025142749337 Q 1.5374773913726263 -3.4150517659555923 1.5344009346766083 -3.448127293497833 Q 1.53132447798059 -3.481202821040074 1.512643918009189 -3.5125403126300987 Q 1.4939633580377882 -3.543877804220124 1.4571399584106342 -3.590814989051544 Q 1.4159134414342922 -3.64455298248263 1.3944972775009727 -3.6813580069681695 Q 1.373081113567653 -3.718163031453709 1.3714025750954153 -3.7605083164167037 Q 1.3697240366231778 -3.8028536013796983 1.4033225843677748 -3.8448749387388785 Q 1.4305214087324485 -3.8788922118391675 1.4711962402855157 -3.892840561817914 Q 1.511871071838583 -3.906788911796661 1.5622226260774628 -3.8938653250372064 Q 1.6125741803163427 -3.8809417382777522 1.6679356247736754 -3.83667698489995 Q 1.7066219353583174 -3.8057449885636543 1.7349079604449198 -3.7645405217572496 Q 1.763193985531522 -3.7233360549508445 1.7750752069145868 -3.6821271781104525 L 1.740536383623271 -3.6649128539107854 Q 1.7279881568852986 -3.7066550410328376 1.7023040406873675 -3.7435922905802954 Q 1.6766199244894366 -3.7805295401277537 1.6439366620989633 -3.806661743929107 Q 1.5792371426729237 -3.858392841250153 1.5250877739427922 -3.859045146491769 Q 1.4709384052126604 -3.859697451733385 1.4378731677497236 -3.8183431197291124 Q 1.412807584511691 -3.7869938680484543 1.4158840412077094 -3.7539183405062135 Q 1.4189604979037276 -3.720842812963973 1.4376410578751284 -3.689505321373948 Q 1.4563216178465295 -3.6581678297839226 1.493278712546931 -3.6100303293159346 Q 1.5345052295232726 -3.556292335884849 1.5555878907791385 -3.519753966540139 Q 1.5766705520350044 -3.4832155971954295 1.5788824007889022 -3.4415373175873425 Q 1.5810942495428 -3.3998590379792555 1.5480290120798634 -3.358504705974983 Q 1.5208301877151897 -3.3244874328746943 1.4800885086254987 -3.3111392407142315 Q 1.4393468295358076 -3.2977910485537687 1.3879947672645665 -3.3115146007357135 Q 1.3366427049933252 -3.3252381529176582 1.2812812605359925 -3.3695029062954607 Q 1.2299218482081056 -3.4105677979833016 1.1976976985060228 -3.465308504463742 M 2.2315717624831186 -3.222375268860775 L 2.342245696382996 -3.0133035880450185 Q 2.3857960891450416 -2.9310335042583127 2.3855929186678955 -2.84927580009071 Q 2.3853897481907493 -2.7675180959231076 2.3441640307483005 -2.7002800210372566 Q 2.302938313305851 -2.633041946151405 2.2267064008062434 -2.592687912491161 Q 2.150474488306635 -2.552333878830917 2.0716915514180183 -2.556044316568463 Q 1.9929086145294015 -2.5597547543060095 1.9251823580266987 -2.605553418578345 Q 1.8574561015239959 -2.6513520828506807 1.8139057087619503 -2.733622166637386 L 1.7032317748620731 -2.9426938474531426 L 2.2315717624831186 -3.222375268860775 M 1.8470270141118612 -2.7550203171162937 Q 1.8857828682212043 -2.6818074902602347 1.9444078892320258 -2.641336884032001 Q 2.0030329102428475 -2.6008662778037674 2.0710939331030724 -2.598244018621317 Q 2.139154955963297 -2.595621759438867 2.206329611532259 -2.6311812544464086 Q 2.27350426710122 -2.6667407494539503 2.30960169894343 -2.724500203142477 Q 2.34569913078564 -2.782259656831003 2.345191508413133 -2.8534952194140764 Q 2.344683886040627 -2.9247307819971495 2.3059280319312836 -2.9979436088532085 L 2.2172290668562917 -3.1655028620701686 L 1.7583280490368691 -2.9225795703332538 L 1.8470270141118612 -2.7550203171162937 M 2.5474827970898923 -2.5072708025959973 L 2.558137115970686 -2.4694591887030892 L 2.3451368190164796 -2.412990323144978 L 2.336335425158433 -2.444226004186946 L 2.5474827970898923 -2.5072708025959973 M 2.106031444026119 -1.7295532010355708 L 2.066910452728225 -1.7259781911236822 L 2.029372848653395 -2.136748599751569 L 2.6246922814474343 -2.1911509244977 L 2.6610641214205617 -1.7931373608582566 L 2.6219431301226677 -1.789562350946368 L 2.5895348880953297 -2.1442026416251028 L 2.354808940307966 -2.122752582153771 L 2.3837976076369753 -1.8055323701078045 L 2.3455270726716444 -1.8020350778026963 L 2.3165384053426346 -2.1192552898486627 L 2.0724574378970786 -2.0969503367027493 L 2.106031444026119 -1.7295532010355708 M 1.925302029694259 -1.0060984535332576 L 2.4210589749145837 -0.8799830670896842 L 2.0645454904424603 -1.2296119218050021 L 2.0698435986905275 -1.2502941013079405 L 2.548890166137112 -1.385879382801342 L 2.0549997196069447 -1.5123982077651876 L 2.065595936103079 -1.5537625667710642 L 2.6446969621853524 -1.4054155358251816 L 2.6355842159986764 -1.3698421870801278 L 2.12168953628929 -1.225552362191515 L 2.502919585467073 -0.8519604123265523 L 2.4940187636103204 -0.8172143507616159 L 1.9147058131981245 -0.9647340945273809 L 1.925302029694259 -1.0060984535332576" fill="#000000" fill-rule="nonzero"></path></g><g><path d=" M -0.7278813774414061 0.16140899999999997 L -0.8491713774414061 0.16140899999999997 L -0.8752953774414062 0.21956599999999998 L -0.8992423774414061 0.21956599999999998 L -0.7997223774414062 0.0018659999999999788 L -0.7770193774414061 0.0018659999999999788 L -0.6774993774414061 0.21956599999999998 L -0.7017573774414061 0.21956599999999998 L -0.7278813774414061 0.16140899999999997 M -0.7362783774414061 0.14274899999999996 L -0.7885263774414061 0.025812999999999975 L -0.8407743774414062 0.14274899999999996 L -0.7362783774414061 0.14274899999999996 M -0.4896616035156248 0.21956599999999998 L -0.5394216035156248 0.14959099999999997 Q -0.5478186035156248 0.150524 -0.5568376035156248 0.150524 L -0.6153056035156249 0.150524 L -0.6153056035156249 0.21956599999999998 L -0.6383196035156249 0.21956599999999998 L -0.6383196035156249 0.0018659999999999788 L -0.5568376035156248 0.0018659999999999788 Q -0.5151636035156248 0.0018659999999999788 -0.49152760351562486 0.021769999999999956 Q -0.46789160351562487 0.04167399999999996 -0.46789160351562487 0.07650599999999996 Q -0.46789160351562487 0.10200799999999997 -0.48079810351562485 0.11957949999999998 Q -0.49370460351562484 0.13715099999999997 -0.5176516035156249 0.14492599999999997 L -0.46447060351562486 0.21956599999999998 L -0.4896616035156248 0.21956599999999998 M -0.5080106035156249 0.11662499999999998 Q -0.49090560351562484 0.10231899999999998 -0.49090560351562484 0.07650599999999996 Q -0.49090560351562484 0.05007099999999998 -0.5080106035156249 0.035920499999999966 Q -0.5251156035156248 0.021769999999999956 -0.5574596035156248 0.021769999999999956 L -0.6153056035156249 0.021769999999999956 L -0.6153056035156249 0.13093099999999996 L -0.5574596035156248 0.13093099999999996 Q -0.5251156035156248 0.13093099999999996 -0.5080106035156249 0.11662499999999998 M -0.3711666552734374 0.021769999999999956 L -0.44767265527343736 0.021769999999999956 L -0.44767265527343736 0.0018659999999999788 L -0.27164665527343734 0.0018659999999999788 L -0.27164665527343734 0.021769999999999956 L -0.34815265527343736 0.021769999999999956 L -0.34815265527343736 0.21956599999999998 L -0.3711666552734374 0.21956599999999998 L -0.3711666552734374 0.021769999999999956 M -0.23184655175781244 0.0018659999999999788 L -0.2088325517578124 0.0018659999999999788 L -0.2088325517578124 0.21956599999999998 L -0.23184655175781244 0.21956599999999998 L -0.23184655175781244 0.0018659999999999788 M -0.12128544433593741 0.21365699999999999 Q -0.14352194433593743 0.20588199999999998 -0.15565094433593743 0.19313099999999997 L -0.14663194433593743 0.17540399999999998 Q -0.1348139443359374 0.18722199999999997 -0.11522094433593741 0.1945305 Q -0.09562794433593741 0.201839 -0.07479094433593741 0.201839 Q -0.045556944335937405 0.201839 -0.030939944335937414 0.1911095 Q -0.016322944335937423 0.18037999999999998 -0.016322944335937423 0.16327499999999998 Q -0.016322944335937423 0.15021299999999999 -0.024253444335937402 0.14243799999999998 Q -0.03218394433593741 0.13466299999999998 -0.0436909443359374 0.13046449999999998 Q -0.055197944335937416 0.126266 -0.07572394433593742 0.12128999999999998 Q -0.10029294433593741 0.11506999999999998 -0.11490994433593742 0.10931649999999997 Q -0.12952694433593742 0.10356299999999997 -0.13994544433593742 0.09174499999999997 Q -0.15036394433593742 0.07992699999999997 -0.15036394433593742 0.05971199999999996 Q -0.15036394433593742 0.04322899999999996 -0.14165594433593742 0.029700499999999963 Q -0.13294794433593743 0.016171999999999964 -0.11490994433593742 0.008085999999999954 Q -0.09687194433593742 -2.7755575615628914e-17 -0.07012594433593741 -2.7755575615628914e-17 Q -0.051465944335937416 -2.7755575615628914e-17 -0.03358344433593741 0.0051314999999999555 Q -0.01570094433593741 0.010262999999999967 -0.002638944335937421 0.019281999999999966 L -0.010413944335937397 0.03763099999999997 Q -0.0240979443359374 0.02861199999999997 -0.03964794433593741 0.02410249999999997 Q -0.055197944335937416 0.01959299999999997 -0.07012594433593741 0.01959299999999997 Q -0.09873794433593741 0.01959299999999997 -0.11319944433593743 0.03063349999999998 Q -0.12766094433593742 0.04167399999999996 -0.12766094433593742 0.059089999999999976 Q -0.12766094433593742 0.07215199999999997 -0.11973044433593741 0.08008249999999997 Q -0.11179994433593742 0.08801299999999998 -0.09982644433593742 0.09221149999999997 Q -0.08785294433593742 0.09640999999999997 -0.06763794433593741 0.10138599999999998 Q -0.0436909443359374 0.10729499999999997 -0.028918444335937404 0.11304849999999997 Q -0.01414594433593741 0.11880199999999998 -0.003882944335937416 0.13046449999999998 Q 0.006380055664062606 0.14212699999999998 0.006380055664062606 0.16203099999999998 Q 0.006380055664062606 0.17851399999999998 -0.002483444335937418 0.19204249999999998 Q -0.011346944335937414 0.20557099999999998 -0.02969594433593742 0.21350149999999998 Q -0.04804494433593741 0.221432 -0.07479094433593741 0.221432 Q -0.09904894433593742 0.221432 -0.12128544433593741 0.21365699999999999 M 0.1960870185546876 0.16140899999999997 L 0.07479701855468758 0.16140899999999997 L 0.04867301855468758 0.21956599999999998 L 0.02472601855468758 0.21956599999999998 L 0.12424601855468759 0.0018659999999999788 L 0.1469490185546876 0.0018659999999999788 L 0.24646901855468759 0.21956599999999998 L 0.22221101855468758 0.21956599999999998 L 0.1960870185546876 0.16140899999999997 M 0.1876900185546876 0.14274899999999996 L 0.13544201855468757 0.025812999999999975 L 0.08319401855468758 0.14274899999999996 L 0.1876900185546876 0.14274899999999996 M 0.4675837924804689 0.0018659999999999788 L 0.4675837924804689 0.21956599999999998 L 0.4486127924804688 0.21956599999999998 L 0.30866279248046885 0.042917999999999956 L 0.30866279248046885 0.21956599999999998 L 0.2856487924804688 0.21956599999999998 L 0.2856487924804688 0.0018659999999999788 L 0.30461979248046883 0.0018659999999999788 L 0.44488079248046886 0.17851399999999998 L 0.44488079248046886 0.0018659999999999788 L 0.4675837924804689 0.0018659999999999788 M 0.6781271479492188 0.16140899999999997 L 0.5568371479492188 0.16140899999999997 L 0.5307131479492188 0.21956599999999998 L 0.5067661479492188 0.21956599999999998 L 0.6062861479492188 0.0018659999999999788 L 0.6289891479492188 0.0018659999999999788 L 0.7285091479492188 0.21956599999999998 L 0.7042511479492188 0.21956599999999998 L 0.6781271479492188 0.16140899999999997 M 0.6697301479492188 0.14274899999999996 L 0.6174821479492189 0.025812999999999975 L 0.5652341479492188 0.14274899999999996 L 0.6697301479492188 0.14274899999999996 M 0.7991082739257813 0.021769999999999956 L 0.7226022739257814 0.021769999999999956 L 0.7226022739257814 0.0018659999999999788 L 0.8986282739257814 0.0018659999999999788 L 0.8986282739257814 0.021769999999999956 L 0.8221222739257813 0.021769999999999956 L 0.8221222739257813 0.21956599999999998 L 0.7991082739257813 0.21956599999999998 L 0.7991082739257813 0.021769999999999956" fill="#ba8437" fill-rule="nonzero"></path></g><g clip-path="url(#SvgjsClipPath1002)"><g clip-path="url(#SvgjsClipPath1000bdf3453e-4c9d-4cab-bb5e-dc1c2e55de4a)"><path d=" M -0.6698519487749255 -0.21125802016667405 L -0.6821201730756575 -0.18999999999999773 L 0.6821201730756723 -0.18999999999999773 L 0.6698519487749328 -0.21124076528018199 L 1.2867141411116463 -1.0718109745277649 L 1.3142184301909405 -1.0718109745277649 L 7.327471962526033e-15 -3.34812736612599 L -1.3142184301909254 -1.0718109745277649 L -1.2867141411116314 -1.0718109745277649 Z M -1.2311706614715818 -1.0718109745277649 L -0.17301474692476404 -1.0718109745277649 L -0.6450739317624656 -0.25417092288951304 Z M -0.6039382823490074 -0.23513878308119418 L -0.12088773481149229 -1.0718109745277649 L 0.120870479925 -1.0718109745277649 L 0.6040073018950136 -0.23513878308119418 Z M -0.45554625845822083 -2.007992096413661 C -0.455270497047652 -2.2520454657094167 -0.2574949258785464 -2.449821036878575 -0.013441556582734604 -2.4500967982892257 C 0.23061855113661744 -2.449830543937254 0.42840462060147066 -2.252052193555635 0.4286804001794082 -2.007992096413661 C 0.4286440660097859 -1.9883695775670043 0.4273067551608718 -1.9687710565053167 0.42467726651164783 -1.949325482317284 C 0.3779497727987511 -1.984884851762928 0.3281514370823362 -2.01621668961048 0.27587112534488334 -2.042950496460489 C 0.25805354638041145 -2.1892646794774904 0.1339533387768388 -2.2993391285429308 -0.013441556582652447 -2.2995651684725615 C -0.1608298709208027 -2.29933042450665 -0.2849202121693821 -2.189258161888922 -0.30273698362370327 -2.042950496460493 C -0.35501729536114146 -2.01621668961048 -0.40481563107757124 -1.984884851762928 -0.451543124790453 -1.9493254823173065 C -0.4541899275576632 -1.9687699044512874 -0.45554453157845043 -1.9883684307095177 -0.4555980231177199 -2.007992096413665 Z M 0.2330272421680435 -2.007992096413661 C 0.232865587979316 -1.8719409474968964 0.12260960331816761 -1.761692681680962 -0.013441556582689751 -1.7615405525494574 C -0.1494859780817459 -1.761702187774188 -0.25973146522214785 -1.8719476749145862 -0.259893100446871 -2.007992096413661 C -0.25989310044686365 -2.0097175850635534 -0.2596687869223824 -2.0113395443944513 -0.2596342771493829 -2.0130305232713477 C -0.18294677901909795 -2.0507403986350567 -0.09888593731044648 -2.0710721875849094 -0.013441556582659997 -2.0725771365791505 C 0.07201702482503824 -2.071061986064432 0.15608739884243117 -2.0506998574917157 0.23276841887054034 -2.012944248838849 C 0.2327511639840556 -2.0112877797349595 0.23297547750854442 -2.009665820404062 0.23297547750854442 -2.007992096413665 Z M -0.013441556582659997 -2.11773317454685 C -0.09583361285878311 -2.1167391559465853 -0.17718534815478626 -2.099194314015321 -0.2526633030038221 -2.0661410639150506 C -0.22576300490605972 -2.176484139742727 -0.1270160562608884 -2.254212461335687 -0.013441556582674874 -2.2544436402778647 C 0.10013938599730787 -2.2542203948677715 0.19889560848392907 -2.1764903800104696 0.22579744472498708 -2.0661410639150506 C 0.15029741588672363 -2.0992011054968063 0.06892176400385464 -2.116746043420787 -0.013493321242151524 -2.1177331745468537 Z M -0.30415188431661955 -1.99044387684425 C -0.2948289775878803 -1.8366534831844115 -0.16751407563694398 -1.716630774988375 -0.013441556582659997 -1.716384514581754 C 0.14059664943988404 -1.7166268426910722 0.2679019646510321 -1.8365880563896464 0.27728602603779207 -1.9903403475252555 C 0.3256129103564325 -1.9635590519608872 0.3716495802476567 -1.9328390828207342 0.41492825563975355 -1.898492586691453 C 0.3646589767082187 -1.70293058037368 0.18847781317340662 -1.5661286674815382 -0.013441556582659997 -1.5658701396516004 C -0.21539515041230395 -1.5661390681074907 -0.3915921329699461 -1.7029903354639517 -0.4418286236915806 -1.8985961160104439 C -0.3985684912092182 -1.9329597026316871 -0.35253609976621825 -1.9636806679841352 -0.30420364897611885 -1.9904438768442538 Z M -0.013441556582659997 -1.5207313565704041 C 0.20135071942499905 -1.5210091232470564 0.3907163789874315 -1.6616709494538116 0.4530270450293903 -1.8672267323553982 C 0.5048356365882967 -1.822951502742875 0.5530210379988214 -1.7746045408917366 0.5971226021819438 -1.7226480383808715 C 0.5415791225418944 -1.6562512351329912 0.28670719406621425 -1.3727361950690886 -0.013441556582659997 -1.3727361950690886 C -0.31322795461505515 -1.3727361950690886 -0.5683759612747231 -1.6563029997924905 -0.6239884604607714 -1.7226652932673674 C -0.5799145342152676 -1.774662321234945 -0.5317396102014637 -1.8230392002541982 -0.47992741308121734 -1.8673302616743852 C -0.41765296106831706 -1.6617490823736596 -0.22829935247140032 -1.5210437725228743 -0.013493321242151524 -1.5207313565704041 Z M 0.00005176465949907616 -1.28116451241927 L 0.09485011108462094 -1.116967012495461 L -0.09486736597111323 -1.116967012495461 Z M 0.645125696421972 -0.25417092288951304 L 0.17304925669777083 -1.0718109745277649 L 1.2312224261310956 -1.0718109745277649 Z M 0.00005176465949907616 -3.25783254507709 L 1.2360883041237893 -1.116967012495461 L 0.1469771231978776 -1.116967012495461 L 0.0244674290554876 -1.329029567567301 C 0.3665973185562532 -1.353186408665801 0.6324951195047464 -1.6938841425871547 0.6440558934590277 -1.7088958938412244 L 0.654615883996378 -1.7226998030403669 L 0.6440558934590277 -1.7365037122395093 C 0.5907963600548201 -1.8027742453215925 0.5308465616530871 -1.8633774317653227 0.46515723023813216 -1.9173521776347895 C 0.4708634331561683 -1.9472579686823042 0.47375189898938785 -1.977633075384424 0.4737846734875977 -2.0080783708461523 C 0.47348036760952095 -2.277065633568547 0.2554939520876003 -2.4950443300248146 -0.013493321242091794 -2.4953391106894127 C -0.28247385614588305 -2.495034823017506 -0.5004497734135019 -2.2770589057498873 -0.500754061085416 -2.0080783708461523 C -0.5007212865871914 -1.9776330753843492 -0.49783282075397906 -1.947257968682233 -0.4921266178359356 -1.9173521776347149 C -0.5578159492509054 -1.8633774317653191 -0.6177657476526459 -1.8027742453215887 -0.6710252810568533 -1.7365037122395093 L -0.681585271594189 -1.7226998030403669 L -0.6710252810568459 -1.7088958938412244 C -0.6591711740320845 -1.6935045350841798 -0.3798318165009168 -1.335707208642389 -0.025123114742431785 -1.3279425097178716 L -0.14692535853837874 -1.116967012495461 L -1.236019284577783 -1.116967012495461 Z" fill="#ba8437" transform="matrix(1,0,0,1,0,0)" fill-rule="nonzero"></path></g></g></g><defs><clipPath id="SvgjsClipPath1002"><path d=" M -1.314218430190933 -3.34812736612599 h 2.628436860381866 v 3.15812736612599 h -2.628436860381866 Z"></path></clipPath><clipPath id="SvgjsClipPath1000bdf3453e-4c9d-4cab-bb5e-dc1c2e55de4a"><path d=" M -1.314218430190933 -3.34812736612599 L 1.314218430190933 -3.34812736612599 L 1.314218430190933 -0.18999999999999995 L -1.314218430190933 -0.18999999999999995 Z"></path></clipPath></defs></svg>